<svg width="6" height="10" viewBox="0 0 6 10" fill="none" xmlns="http://www.w3.org/2000/svg">
<path fill-rule="evenodd" clip-rule="evenodd" d="M0.293031 9.70698C0.10556 9.51945 0.000244141 9.26514 0.000244141 8.99998C0.000244141 8.73482 0.10556 8.48051 0.293031 8.29298L3.58603 4.99998L0.293031 1.70698C0.110873 1.51838 0.0100779 1.26578 0.0123563 1.00358C0.0146347 0.741382 0.119804 0.49057 0.305212 0.305162C0.49062 0.119753 0.741433 0.0145843 1.00363 0.0123059C1.26583 0.0100274 1.51843 0.110822 1.70703 0.29298L5.70703 4.29298C5.8945 4.48051 5.99982 4.73482 5.99982 4.99998C5.99982 5.26514 5.8945 5.51945 5.70703 5.70698L1.70703 9.70698C1.5195 9.89445 1.26519 9.99977 1.00003 9.99977C0.734866 9.99977 0.480558 9.89445 0.293031 9.70698Z" fill="currentColor"/>
</svg>
