<svg
  width="19"
  height="20"
  viewBox="0 0 19 20"
  fill="none"
  xmlns="http://www.w3.org/2000/svg"
>
  <path
    d="M9.75 2.54419H1.5C1.22386 2.54419 1 2.76805 1 3.04419V18.0001C1 18.2762 1.22386 18.5001 1.5 18.5001H16.4559C16.732 18.5001 16.9559 18.2762 16.9559 18.0001V9.49272"
    stroke="currentColor"
    strokeWidth="1.6"
  />
  <path
    d="M7.72917 10.9813L7.93566 7.88402C7.94393 7.75993 7.99815 7.64338 8.08773 7.55712L14.5436 1.34034C14.7399 1.15135 15.0513 1.15428 15.244 1.34695L17.8957 3.99864C18.0884 4.19131 18.0913 4.50275 17.9023 4.69902L11.6855 11.1549C11.5993 11.2445 11.4827 11.2987 11.3586 11.307L8.26133 11.5135C7.95948 11.5336 7.70905 11.2832 7.72917 10.9813Z"
    stroke="currentColor"
    strokeWidth="1.6"
  />
</svg>
