<svg
  width="17"
  height="18"
  viewBox="0 0 17 18"
  fill="none"
  xmlns="http://www.w3.org/2000/svg"
>
  <g clipPath="url(#clip0_12730_35793)">
    <path
      d="M17 9.49666C17 14.187 13.1762 18.0105 8.49734 18.0051C3.80787 17.9945 0 14.171 0 9.48603C0 4.79573 3.82381 0.972227 8.50266 0.977545C13.1921 0.982862 17 4.80636 16.9947 9.49666H17ZM8.50797 2.53034C4.67354 2.52502 1.55608 5.64126 1.55077 9.48603C1.54545 13.3255 4.65761 16.4523 8.49203 16.4577C12.3265 16.463 15.4439 13.3468 15.4492 9.50198C15.4545 5.66253 12.3424 2.54098 8.50797 2.53034Z"
      fill="currentColor"
    />
    <path
      d="M7.73269 7.93301C7.73269 7.15129 7.73269 6.37489 7.73269 5.59318C7.73269 5.26879 7.94512 4.99226 8.24253 4.89123C8.55056 4.78487 8.89576 4.86995 9.08695 5.13584C9.17724 5.26347 9.2569 5.43896 9.2569 5.59849C9.26752 7.16193 9.26752 8.73068 9.2569 10.2941C9.2569 10.7195 8.89576 11.0492 8.48152 11.0439C8.06727 11.0386 7.73269 10.7142 7.72738 10.2941C7.71676 9.50708 7.72738 8.72536 7.72738 7.93833L7.73269 7.93301Z"
      fill="currentColor"
    />
    <path
      d="M7.73242 13.3628C7.73242 12.9321 8.067 12.5864 8.49187 12.5811C8.91674 12.5758 9.26194 12.9215 9.26725 13.3469C9.26725 13.7776 8.93267 14.1233 8.5078 14.1286C8.08294 14.1286 7.73773 13.7936 7.73242 13.3628Z"
      fill="currentColor"
    />
  </g>
  <defs>
    <clipPath id="clip0_12730_35793">
      <rect
        width="17"
        height="17.0223"
        fill="white"
        transform="translate(0 0.977539)"
      />
    </clipPath>
  </defs>
</svg>
