<svg width="16" height="16" viewBox="0 0 16 16" fill="none" xmlns="http://www.w3.org/2000/svg">
<path d="M15 8C15 11.866 11.866 15 8 15C4.13401 15 1 11.866 1 8C1 4.13401 4.13401 1 8 1C11.866 1 15 4.13401 15 8ZM2.75 8C2.75 10.8995 5.1005 13.25 8 13.25C10.8995 13.25 13.25 10.8995 13.25 8C13.25 5.1005 10.8995 2.75 8 2.75C5.1005 2.75 2.75 5.1005 2.75 8Z" fill="#f0f1f3"/>
<path d="M13.924 6.44382C14.3914 6.32104 14.6758 5.83973 14.4957 5.39129C14.2631 4.812 13.9535 4.26521 13.5743 3.766C13.0183 3.03397 12.3236 2.41862 11.5297 1.95509C10.7359 1.49156 9.85855 1.18892 8.94777 1.06446C8.32666 0.979582 7.69831 0.978699 7.07947 1.06079C6.60042 1.12434 6.32104 1.6086 6.44382 2.07599C6.5666 2.54338 7.04571 2.81489 7.52699 2.77135C7.92043 2.73576 8.31757 2.7446 8.71082 2.79834C9.39392 2.89169 10.0519 3.11867 10.6473 3.46632C11.2427 3.81397 11.7637 4.27548 12.1808 4.8245C12.4208 5.14058 12.6237 5.48209 12.7861 5.84223C12.9847 6.28278 13.4566 6.5666 13.924 6.44382Z" fill="currentColor"/>
</svg>
