<svg width="14" height="14" viewBox="0 0 14 14" fill="none" xmlns="http://www.w3.org/2000/svg">
<path fill-rule="evenodd" clip-rule="evenodd" d="M5.39998 2.20001C4.55128 2.20001 3.73735 2.53715 3.13723 3.13727C2.53712 3.73738 2.19998 4.55132 2.19998 5.40001C2.19998 6.2487 2.53712 7.06263 3.13723 7.66275C3.73735 8.26287 4.55128 8.60001 5.39998 8.60001C6.24867 8.60001 7.0626 8.26287 7.66272 7.66275C8.26283 7.06263 8.59998 6.2487 8.59998 5.40001C8.59998 4.55132 8.26283 3.73738 7.66272 3.13727C7.0626 2.53715 6.24867 2.20001 5.39998 2.20001ZM0.599976 5.40001C0.599879 4.64457 0.77809 3.89978 1.12011 3.2262C1.46214 2.55263 1.95831 1.96929 2.56829 1.52363C3.17827 1.07797 3.88483 0.782579 4.63049 0.661475C5.37616 0.540372 6.13988 0.596978 6.85955 0.826689C7.57921 1.0564 8.2345 1.45273 8.77211 1.98345C9.30972 2.51416 9.71448 3.16428 9.95346 3.88091C10.1924 4.59755 10.2589 5.36048 10.1474 6.10765C10.036 6.85482 9.74972 7.56513 9.31198 8.18081L13.1656 12.0344C13.3113 12.1853 13.3919 12.3874 13.3901 12.5971C13.3883 12.8069 13.3042 13.0075 13.1558 13.1559C13.0075 13.3042 12.8069 13.3883 12.5971 13.3901C12.3873 13.392 12.1853 13.3113 12.0344 13.1656L8.18158 9.31281C7.46347 9.82343 6.61865 10.1265 5.73972 10.1889C4.86078 10.2513 3.98163 10.0705 3.19862 9.66639C2.4156 9.26228 1.75892 8.65043 1.30055 7.89789C0.842184 7.14535 0.599804 6.28116 0.599976 5.40001Z" fill="currentColor"/>
</svg>
