<svg
  width="16"
  height="16"
  viewBox="0 0 16 16"
  fill="none"
  xmlns="http://www.w3.org/2000/svg"
>
  <path
    d="M8 1V15M8 1H13.4444C13.857 1 14.2527 1.16389 14.5444 1.45561C14.8361 1.74733 15 2.143 15 2.55556V13.4444C15 13.857 14.8361 14.2527 14.5444 14.5444C14.2527 14.8361 13.857 15 13.4444 15H8V1ZM8 1H2.55556C2.143 1 1.74733 1.16389 1.45561 1.45561C1.16389 1.74733 1 2.143 1 2.55556V13.4444C1 13.857 1.16389 14.2527 1.45561 14.5444C1.74733 14.8361 2.143 15 2.55556 15H8V1Z"
    stroke="currentColor"
    stroke-width="1.2"
    stroke-linecap="round"
    stroke-linejoin="round"
  />
</svg>
